
<svg width="800" height="800" viewBox="0 0 800 800" xmlns="http://www.w3.org/2000/svg">
  <defs>
    <pattern id="circuit" x="0" y="0" width="100" height="100" patternUnits="userSpaceOnUse">
      <path d="M11 18c3.866 0 7-3.134 7-7s-3.134-7-7-7-7 3.134-7 7 3.134 7 7 7zm48 25c3.866 0 7-3.134 7-7s-3.134-7-7-7-7 3.134-7 7 3.134 7 7 7zm-43-7c1.657 0 3-1.343 3-3s-1.343-3-3-3-3 1.343-3 3 1.343 3 3 3zm63 31c1.657 0 3-1.343 3-3s-1.343-3-3-3-3 1.343-3 3 1.343 3 3 3zM34 90c1.657 0 3-1.343 3-3s-1.343-3-3-3-3 1.343-3 3 1.343 3 3 3zm56-76c1.657 0 3-1.343 3-3s-1.343-3-3-3-3 1.343-3 3 1.343 3 3 3zM12 86c2.21 0 4-1.79 4-4s-1.79-4-4-4-4 1.79-4 4 1.79 4 4 4zm28-65c2.21 0 4-1.79 4-4s-1.79-4-4-4-4 1.79-4 4 1.79 4 4 4zm23-11c2.76 0 5-2.24 5-5s-2.24-5-5-5-5 2.24-5 5 2.24 5 5 5zm-6 60c2.21 0 4-1.79 4-4s-1.79-4-4-4-4 1.79-4 4 1.79 4 4 4zm29 22c2.76 0 5-2.24 5-5s-2.24-5-5-5-5 2.24-5 5 2.24 5 5 5zM32 63c2.76 0 5-2.24 5-5s-2.24-5-5-5-5 2.24-5 5 2.24 5 5 5zm57-13c2.76 0 5-2.24 5-5s-2.24-5-5-5-5 2.24-5 5 2.24 5 5 5zm-9-21c1.105 0 2-.895 2-2s-.895-2-2-2-2 .895-2 2 .895 2 2 2zM60 91c1.105 0 2-.895 2-2s-.895-2-2-2-2 .895-2 2 .895 2 2 2zM35 41c1.105 0 2-.895 2-2s-.895-2-2-2-2 .895-2 2 .895 2 2 2zM12 60c1.105 0 2-.895 2-2s-.895-2-2-2-2 .895-2 2 .895 2 2 2z" fill="#2563eb" fill-opacity="0.05" fill-rule="evenodd"/>
    </pattern>
    <linearGradient id="circuit-lines" x1="0%" y1="0%" x2="100%" y2="100%">
      <stop offset="0%" stop-color="#0284c7" stop-opacity="0.1"/>
      <stop offset="100%" stop-color="#2563eb" stop-opacity="0.05"/>
    </linearGradient>
  </defs>
  
  <rect width="800" height="800" fill="url(#circuit)"/>
  
  <!-- Horizontal Lines -->
  <line x1="0" y1="200" x2="800" y2="200" stroke="url(#circuit-lines)" stroke-width="1"/>
  <line x1="0" y1="400" x2="800" y2="400" stroke="url(#circuit-lines)" stroke-width="1"/>
  <line x1="0" y1="600" x2="800" y2="600" stroke="url(#circuit-lines)" stroke-width="1"/>
  
  <!-- Vertical Lines -->
  <line x1="200" y1="0" x2="200" y2="800" stroke="url(#circuit-lines)" stroke-width="1"/>
  <line x1="400" y1="0" x2="400" y2="800" stroke="url(#circuit-lines)" stroke-width="1"/>
  <line x1="600" y1="0" x2="600" y2="800" stroke="url(#circuit-lines)" stroke-width="1"/>
  
  <!-- Circuit Nodes -->
  <circle cx="200" cy="200" r="4" fill="#2563eb" fill-opacity="0.2"/>
  <circle cx="400" cy="200" r="4" fill="#2563eb" fill-opacity="0.2"/>
  <circle cx="600" cy="200" r="4" fill="#2563eb" fill-opacity="0.2"/>
  <circle cx="200" cy="400" r="4" fill="#2563eb" fill-opacity="0.2"/>
  <circle cx="400" cy="400" r="4" fill="#2563eb" fill-opacity="0.3"/>
  <circle cx="600" cy="400" r="4" fill="#2563eb" fill-opacity="0.2"/>
  <circle cx="200" cy="600" r="4" fill="#2563eb" fill-opacity="0.2"/>
  <circle cx="400" cy="600" r="4" fill="#2563eb" fill-opacity="0.2"/>
  <circle cx="600" cy="600" r="4" fill="#2563eb" fill-opacity="0.2"/>
  
  <!-- Energy Pulse at Center -->
  <circle cx="400" cy="400" r="30" fill="url(#circuit-lines)" opacity="0.2">
    <animate attributeName="r" from="10" to="50" dur="3s" repeatCount="indefinite" />
    <animate attributeName="opacity" from="0.3" to="0.1" dur="3s" repeatCount="indefinite" />
  </circle>
</svg>
